<svg width="59" height="52" viewBox="0 0 59 52" fill="none" xmlns="http://www.w3.org/2000/svg">
<path d="M12.9609 4.07586C19.611 9.08541 26.765 19.2414 29.3908 24.6914V39.0865C29.3908 38.7801 29.2729 39.1264 29.0192 39.8723C27.6487 43.9111 22.2957 59.6739 10.055 47.0726C3.60979 40.4379 6.59359 33.8032 18.3257 31.8001C11.614 32.9458 4.06842 31.0524 1.99826 23.6291C1.40186 21.4937 0.386719 8.34037 0.386719 6.56387C0.386719 -2.33494 8.16253 0.462139 12.9609 4.07586ZM45.8207 4.07586C39.1706 9.08541 32.0165 19.2414 29.3908 24.6914V39.0865C29.3908 38.7801 29.5086 39.1264 29.7624 39.8723C31.1328 43.9111 36.4859 59.6739 48.7265 47.0726C55.1718 40.4379 52.188 33.8032 40.4558 31.8001C47.1675 32.9458 54.7131 31.0524 56.7833 23.6291C57.3797 21.4937 58.3948 8.34037 58.3948 6.56387C58.3948 -2.33494 50.6199 0.462139 45.8207 4.07586Z" fill="white"/>
</svg>
