<svg width="29" height="52" viewBox="0 0 29 52" fill="none" xmlns="http://www.w3.org/2000/svg">
<path d="M16.9292 20.9391H27.4074L25.8524 29.3127H17.0698L17.0371 51.4988C16.8783 51.5178 16.7195 51.5368 16.5599 51.5529C16.2501 51.5855 15.9391 51.614 15.6256 51.6384C14.8072 51.7008 13.978 51.7326 13.1418 51.7326C11.3392 51.7326 9.57287 51.5855 7.84917 51.2989C7.47532 51.2378 7.10354 51.1692 6.73465 51.0949L6.77807 29.0294H-0.00585938V20.9391H6.77642V16.2226H6.7454L6.75243 15.5482C6.77352 13.4832 6.88559 11.0717 7.5601 8.84392C8.26231 6.52409 9.48561 4.69159 11.3003 3.24113C12.8288 2.01988 14.6881 1.19305 16.6769 0.850673C18.0805 0.60948 19.5536 0.492188 21.1801 0.492188C23.07 0.492188 25.1365 0.652019 27.4975 0.980769L28.0736 1.06089V8.65435L24.1159 8.68285C22.4315 8.69565 20.6685 8.87985 19.1892 10.1412C17.7248 11.3897 16.9573 13.3308 16.9693 15.7551L16.9292 20.9391Z" fill="white"/>
</svg>
