<svg width="53" height="53" viewBox="0 0 53 53" fill="none" xmlns="http://www.w3.org/2000/svg">
<path d="M26.4828 0.780273C19.5151 0.780273 18.6416 0.810257 15.9056 0.933523C13.1745 1.05901 11.3097 1.49266 9.67843 2.12509C7.99043 2.78029 6.55986 3.65593 5.13374 5.08015C3.70762 6.50437 2.83081 7.93304 2.17474 9.61767C1.54146 11.2479 1.10723 13.1097 0.983247 15.8365C0.858149 18.5695 0.828125 19.4423 0.828125 26.4002C0.828125 33.3586 0.858149 34.2298 0.983247 36.9633C1.10723 39.6896 1.54146 41.553 2.17474 43.1821C2.83081 44.8662 3.70762 46.2949 5.13374 47.7191C6.55986 49.1433 7.99043 50.0206 9.67843 50.6747C11.3097 51.3083 13.1745 51.7419 15.9056 51.8657C18.6416 51.9907 19.5151 52.0206 26.4828 52.0206C33.4499 52.0206 34.324 51.9907 37.0594 51.8657C39.791 51.7419 41.6553 51.3083 43.2866 50.6747C44.9746 50.0206 46.4051 49.1433 47.8313 47.7191C49.2574 46.2949 50.1342 44.8662 50.7903 43.1821C51.4241 41.553 51.8578 39.6896 51.9818 36.9633C52.1069 34.2298 52.1369 33.3586 52.1369 26.4002C52.1369 19.4423 52.1069 18.5695 51.9818 15.8365C51.8578 13.1097 51.4241 11.2479 50.7903 9.61767C50.1342 7.93304 49.2574 6.50437 47.8313 5.08015C46.4051 3.65593 44.9746 2.78029 43.2866 2.12509C41.6553 1.49266 39.791 1.05901 37.0594 0.933523C34.324 0.810257 33.4499 0.780273 26.4828 0.780273ZM26.4828 5.39553C33.3332 5.39553 34.1444 5.42274 36.8487 5.54489C39.3512 5.65983 40.709 6.07683 41.6125 6.42775C42.8095 6.89249 43.6652 7.4483 44.562 8.34392C45.4599 9.24066 46.0165 10.0935 46.4819 11.2906C46.8321 12.1929 47.2508 13.5489 47.3642 16.0464C47.4882 18.7488 47.5138 19.5589 47.5138 26.4002C47.5138 33.2403 47.4882 34.0504 47.3642 36.7529C47.2508 39.2504 46.8321 40.608 46.4819 41.5103C46.0165 42.7057 45.4599 43.5586 44.562 44.4559C43.6652 45.3526 42.8095 45.9068 41.6125 46.3715C40.709 46.723 39.3512 47.1405 36.8487 47.2544C34.1444 47.3782 33.3332 47.4037 26.4828 47.4037C19.6318 47.4037 18.8206 47.3782 16.1163 47.2544C13.6154 47.1405 12.256 46.723 11.3525 46.3715C10.1555 45.9068 9.2998 45.3526 8.40354 44.4559C7.50505 43.5586 6.9485 42.7057 6.48313 41.5103C6.13286 40.608 5.71475 39.2504 5.60077 36.7529C5.47679 34.0504 5.45121 33.2403 5.45121 26.4002C5.45121 19.5589 5.47679 18.7488 5.60077 16.0481C5.71475 13.5489 6.13286 12.1929 6.48313 11.2906C6.9485 10.0935 7.50505 9.24066 8.40354 8.34392C9.2998 7.4483 10.1555 6.89249 11.3525 6.42775C12.256 6.07683 13.6154 5.65983 16.1163 5.54489C18.8206 5.42274 19.6318 5.39553 26.4828 5.39553Z" fill="white"/>
<path d="M26.4828 34.9405C21.7602 34.9405 17.9311 31.117 17.9311 26.4002C17.9311 21.6839 21.7602 17.8604 26.4828 17.8604C31.2054 17.8604 35.034 21.6839 35.034 26.4002C35.034 31.117 31.2054 34.9405 26.4828 34.9405ZM26.4828 13.2435C19.2065 13.2435 13.3096 19.1341 13.3096 26.4002C13.3096 33.6657 19.2065 39.5558 26.4828 39.5558C33.7585 39.5558 39.6571 33.6657 39.6571 26.4002C39.6571 19.1341 33.7585 13.2435 26.4828 13.2435Z" fill="white"/>
<path d="M43.2555 12.7249C43.2555 14.4217 41.8777 15.7976 40.1764 15.7976C38.4773 15.7976 37.0979 14.4217 37.0979 12.7249C37.0979 11.0258 38.4773 9.64988 40.1764 9.64988C41.8777 9.64988 43.2555 11.0258 43.2555 12.7249Z" fill="white"/>
</svg>
