<svg width="49" height="52" viewBox="0 0 49 52" fill="none" xmlns="http://www.w3.org/2000/svg">
<path d="M48.3235 17.0669C48.3235 5.94996 41.0394 2.69352 41.0394 2.69352C37.3679 1.00765 31.0626 0.297945 24.5112 0.244141H24.3498C17.7985 0.297945 11.4983 1.00765 7.82423 2.69352C7.82423 2.69352 0.540155 5.95252 0.540155 17.0669C0.540155 19.6111 0.491475 22.6549 0.5709 25.8832C0.834798 36.7542 2.56422 47.4689 12.6154 50.1284C17.2502 51.3556 21.2292 51.6119 24.4318 51.4351C30.2427 51.1122 33.5042 49.3623 33.5042 49.3623L33.3121 45.1451C33.3121 45.1451 29.1589 46.4543 24.4959 46.2955C19.8738 46.1366 14.9981 45.7984 14.25 40.1234C14.1794 39.596 14.1451 39.0644 14.1475 38.5323C14.1475 38.5323 18.6824 39.6417 24.4318 39.9056C27.947 40.067 31.2419 39.7006 34.5906 39.3009C41.0112 38.5349 46.6017 34.579 47.3038 30.9638C48.4157 25.2683 48.3235 17.0669 48.3235 17.0669ZM39.7327 31.3891H34.401V18.3249C34.401 15.5707 33.2429 14.1743 30.9242 14.1743C28.3621 14.1743 27.0785 15.832 27.0785 19.1115V26.2624H21.7775V19.1115C21.7775 15.832 20.4939 14.1743 17.9292 14.1743C15.6105 14.1743 14.4524 15.5732 14.4524 18.3249V31.3891H9.12066V17.9304C9.12066 15.1787 9.82011 12.9932 11.2293 11.3765C12.6794 9.75981 14.5779 8.92969 16.9376 8.92969C19.6663 8.92969 21.7339 9.97759 23.0995 12.076L24.4267 14.3024L25.7564 12.076C27.122 9.97759 29.1897 8.92969 31.9183 8.92969C34.2754 8.92969 36.1765 9.75981 37.6267 11.3765C39.0333 12.9932 39.7327 15.1787 39.7327 17.9304V31.3891Z" fill="white"/>
</svg>
