<svg width="45" height="53" viewBox="0 0 45 53" fill="none" xmlns="http://www.w3.org/2000/svg">
<path d="M22.8266 35.5336C20.0356 35.6898 17.1369 34.4384 16.9954 31.761C16.8889 29.7737 18.4096 27.5584 22.9973 27.2953C23.5224 27.2638 24.0386 27.2501 24.5441 27.2501C26.2111 27.2501 27.7699 27.4111 29.1859 27.7211C28.6578 34.3125 25.5581 35.3846 22.8266 35.5336ZM34.3427 24.72C34.1221 24.6137 33.8979 24.5116 33.6695 24.4141C33.274 17.1267 29.2864 12.9549 22.5905 12.9122H22.5007C18.4952 12.9122 15.1654 14.6197 13.1148 17.7259L16.7973 20.2484C18.3293 17.9279 20.7314 17.4337 22.5025 17.4337H22.5631C24.7677 17.4474 26.4318 18.0876 27.5082 19.3361C28.2909 20.2454 28.816 21.5009 29.0747 23.0855C27.1216 22.7541 25.0068 22.652 22.7475 22.7814C16.3816 23.1461 12.2894 26.8546 12.5635 32.0057C12.7033 34.6196 14.0069 36.8682 16.2341 38.337C18.1176 39.5777 20.544 40.1847 23.0639 40.0475C26.3937 39.8651 29.0045 38.5971 30.8273 36.2766C32.2112 34.5162 33.0867 32.2338 33.4732 29.3574C35.0593 30.3136 36.2351 31.5727 36.8851 33.0837C37.9889 35.6566 38.0526 39.8818 34.6014 43.3259C31.5761 46.3437 27.9388 47.6497 22.4442 47.6907C16.3501 47.6456 11.7398 45.6927 8.74186 41.8874C5.93597 38.3251 4.48546 33.1781 4.43015 26.5915C4.48546 20.0037 5.93597 14.8567 8.74186 11.2943C11.7398 7.48845 16.3501 5.53621 22.4442 5.49226C28.5846 5.53621 33.274 7.49914 36.3873 11.3216C37.9128 13.1979 39.0624 15.5546 39.8218 18.305L44.1365 17.1558C43.2171 13.771 41.7707 10.8548 39.8022 8.43576C35.8117 3.53528 29.9775 1.02237 22.4596 0.970703H22.4305C14.9263 1.02237 9.15756 3.54478 5.28119 8.46486C1.83301 12.8439 0.0530178 18.9364 -0.00585938 26.5731V26.6081C0.0530178 34.2454 1.83301 40.3397 5.28119 44.7169C9.15756 49.6388 14.9263 52.1594 22.4305 52.2111H22.4596C29.1294 52.1653 33.8312 50.4216 37.7058 46.5569C42.7722 41.5014 42.62 35.1624 40.9488 31.2716C39.7505 28.4831 37.4668 26.2161 34.3427 24.72Z" fill="white"/>
</svg>
