<svg width="51" height="52" viewBox="0 0 51 52" fill="none" xmlns="http://www.w3.org/2000/svg">
<path d="M24.4842 29.7771L22.4413 26.79L6.57106 3.60225H13.2981L26.2385 22.3382L28.2894 25.3075L44.2067 48.353H37.1995L24.4842 29.7771ZM30.4675 22.7474L28.4197 19.7812L15.0035 0.357422H0.414062L20.2582 29.3501L22.303 32.3384L35.4844 51.5978H50.3949L30.4675 22.7474Z" fill="white"/>
<path d="M22.4413 26.79L24.4842 29.7771L22.303 32.3384L5.90747 51.5978H1.28024L20.2582 29.3501L22.4413 26.79Z" fill="white"/>
<path d="M49.5288 0.357422L30.4675 22.7474L28.2894 25.3075L26.2385 22.3382L28.4197 19.7812L44.9878 0.357422H49.5288Z" fill="white"/>
</svg>
