<svg width="541" height="193" viewBox="0 0 541 193" fill="none" xmlns="http://www.w3.org/2000/svg">
<path d="M53.8053 68.8773L66.2045 22.7705H47.2842L52.152 4.58496H111.485L106.617 22.7705H87.6965L75.2973 68.8773H53.8053Z" fill="white"/>
<path d="M138.021 70.1632C119.927 70.1632 110.192 61.5296 110.192 47.0179C110.192 43.7115 110.651 40.1295 111.569 36.6393L120.203 4.58496H142.062L133.061 38.017C132.602 39.8539 132.327 41.599 132.327 43.0685C132.327 48.3956 135.449 51.151 141.144 51.151C143.807 51.151 146.287 50.2325 148.032 48.4875C149.961 46.5587 151.247 44.0789 152.625 39.1192L161.901 4.58496H183.761L173.566 42.4256C171.269 50.9673 167.963 57.2129 163.463 61.7133C157.401 67.7752 148.216 70.1632 138.021 70.1632Z" fill="white"/>
<path d="M177.502 68.8773L194.769 4.58496H219.843C231.691 4.58496 239.223 7.15666 243.54 11.4734C247.122 15.0554 248.591 19.8314 248.591 24.883C248.591 34.8942 243.356 43.5278 230.681 47.4772L239.59 68.8773H216.445L209.281 50.5081H203.954L198.994 68.8773H177.502ZM207.995 35.1698H215.802C222.966 35.1698 226.732 31.8633 226.732 27.8221C226.732 26.5362 226.272 25.3422 225.354 24.4238C224.16 23.2298 222.047 22.5868 219.017 22.5868H211.393L207.995 35.1698Z" fill="white"/>
<path d="M247.571 68.8773L264.838 4.58496H284.952L299.556 35.2616L307.822 4.58496H329.13L311.863 68.8773H292.759L277.513 36.9148L268.879 68.8773H247.571Z" fill="white"/>
<path d="M34.0574 148.458L25.332 83.7067H48.9365L51.6919 119.802L73.9187 83.7067H98.0743L54.631 148.458H34.0574Z" fill="white"/>
<path d="M87.5033 147.999L104.77 83.7067H126.262L108.995 147.999H87.5033Z" fill="white"/>
<path d="M152.388 149.285C139.622 149.285 128.508 144.693 120.701 137.62L133.009 122.925C140.357 129.079 147.888 132.018 154.685 132.018C157.44 132.018 159.369 131.008 159.369 129.171C159.369 127.15 158.175 126.507 148.806 123.017C136.866 118.608 131.264 114.383 131.264 104.923C131.264 92.524 142.653 82.4209 160.195 82.4209C171.676 82.4209 181.871 86.0948 188.851 92.0648L176.544 106.76C171.676 102.811 164.788 99.5961 157.991 99.5961C155.236 99.5961 153.307 100.331 153.307 102.168C153.307 104.097 154.685 104.464 163.594 107.77C174.523 111.812 181.504 116.404 181.504 126.232C181.504 139.182 170.849 149.285 152.388 149.285Z" fill="white"/>
<path d="M219.028 149.285C200.934 149.285 191.198 140.651 191.198 126.14C191.198 122.833 191.658 119.251 192.576 115.761L201.21 83.7067H223.069L214.068 117.139C213.609 118.976 213.333 120.721 213.333 122.19C213.333 127.517 216.456 130.273 222.151 130.273C224.814 130.273 227.294 129.354 229.039 127.609C230.968 125.68 232.254 123.201 233.631 118.241L242.908 83.7067H264.767L254.572 121.547C252.276 130.089 248.97 136.335 244.469 140.835C238.407 146.897 229.223 149.285 219.028 149.285Z" fill="white"/>
<path d="M252.112 147.999L296.565 83.2475H317.874L327.61 147.999H304.74L303.638 139.366H281.135L275.533 147.999H252.112ZM290.687 124.119H302.444L300.699 108.505L290.687 124.119Z" fill="white"/>
<path d="M333.78 147.999L351.047 83.7067H372.539L360.231 129.63H389.53L384.571 147.999H333.78Z" fill="white"/>
<path d="M424.142 149.285C411.375 149.285 400.262 144.693 392.455 137.62L404.763 122.925C412.11 129.079 419.642 132.018 426.438 132.018C429.194 132.018 431.122 131.008 431.122 129.171C431.122 127.15 429.928 126.507 420.56 123.017C408.62 118.608 403.017 114.383 403.017 104.923C403.017 92.524 414.406 82.4209 431.949 82.4209C443.43 82.4209 453.625 86.0948 460.605 92.0648L448.298 106.76C443.43 102.811 436.541 99.5961 429.745 99.5961C426.989 99.5961 425.061 100.331 425.061 102.168C425.061 104.097 426.438 104.464 435.347 107.77C446.277 111.812 453.257 116.404 453.257 126.232C453.257 139.182 442.603 149.285 424.142 149.285Z" fill="white"/>
<path d="M354.544 68.8776L366.668 23.5974L356.84 26.0772L356.289 9.36122L376.863 4.12598H393.028L375.669 68.8776H354.544Z" fill="#FF0000"/>
<path d="M522.871 0.454102L483.622 128.133L483.614 128.156C480.727 137.352 476.035 148.951 466.671 158.257C457.552 167.321 443.297 174.909 419.806 174.909C408.776 174.909 386.321 174.929 357 174.956C270.075 175.036 96.3844 175.171 3.81591 174.989L0.414062 192.214C92.3627 192.406 269.114 192.269 357.084 192.188C386.375 192.161 408.799 192.14 419.806 192.14C447.502 192.14 466.232 182.988 478.818 170.479C491.152 158.22 496.884 143.424 500.063 133.291L500.078 133.244L540.898 0.454102H522.871Z" fill="#FF0000"/>
</svg>
